<svg width="980" height="520" viewBox="0 0 980 520" xmlns="http://www.w3.org/2000/svg">
  <defs>
    <filter id="shadow" x="-20%" y="-20%" width="140%" height="140%">
      <feDropShadow dx="0" dy="6" stdDeviation="8" flood-color="#B7C5D8" flood-opacity="0.32"/>
    </filter>
  </defs>
  <rect width="980" height="520" rx="28" fill="#F8FBFF"/>
  <text x="490" y="52" text-anchor="middle" font-family="Arial, 'PingFang SC', 'Microsoft YaHei', sans-serif" font-size="28" font-weight="700" fill="#243B64">大模型能帮普通人做什么？</text>
  <g font-family="Arial, 'PingFang SC', 'Microsoft YaHei', sans-serif" text-anchor="middle">
    <circle cx="490" cy="268" r="86" fill="#385FA8" filter="url(#shadow)"/>
    <text x="490" y="258" font-size="25" font-weight="700" fill="#FFFFFF">大模型</text>
    <text x="490" y="291" font-size="15" fill="#E9F1FF">语言工作助手</text>
    <g filter="url(#shadow)">
      <rect x="105" y="115" width="160" height="76" rx="20" fill="#FFFFFF" stroke="#D7E4F5"/>
      <text x="185" y="147" font-size="19" font-weight="700" fill="#243B64">学习</text>
      <text x="185" y="172" font-size="13" fill="#5E6D82">解释、出题、计划</text>
      <rect x="410" y="92" width="160" height="76" rx="20" fill="#FFFFFF" stroke="#D7E4F5"/>
      <text x="490" y="124" font-size="19" font-weight="700" fill="#243B64">写作</text>
      <text x="490" y="149" font-size="13" fill="#5E6D82">起草、润色、改风格</text>
      <rect x="715" y="115" width="160" height="76" rx="20" fill="#FFFFFF" stroke="#D7E4F5"/>
      <text x="795" y="147" font-size="19" font-weight="700" fill="#243B64">办公</text>
      <text x="795" y="172" font-size="13" fill="#5E6D82">邮件、纪要、表格</text>
      <rect x="85" y="250" width="160" height="76" rx="20" fill="#FFFFFF" stroke="#D7E4F5"/>
      <text x="165" y="282" font-size="19" font-weight="700" fill="#243B64">阅读</text>
      <text x="165" y="307" font-size="13" fill="#5E6D82">总结、提炼、对比</text>
      <rect x="735" y="250" width="160" height="76" rx="20" fill="#FFFFFF" stroke="#D7E4F5"/>
      <text x="815" y="282" font-size="19" font-weight="700" fill="#243B64">编程</text>
      <text x="815" y="307" font-size="13" fill="#5E6D82">解释、生成、排错</text>
      <rect x="105" y="385" width="160" height="76" rx="20" fill="#FFFFFF" stroke="#D7E4F5"/>
      <text x="185" y="417" font-size="19" font-weight="700" fill="#243B64">创意</text>
      <text x="185" y="442" font-size="13" fill="#5E6D82">起名、脚本、脑暴</text>
      <rect x="410" y="408" width="160" height="76" rx="20" fill="#FFFFFF" stroke="#D7E4F5"/>
      <text x="490" y="440" font-size="19" font-weight="700" fill="#243B64">决策辅助</text>
      <text x="490" y="465" font-size="13" fill="#5E6D82">选项、利弊、盲点</text>
      <rect x="715" y="385" width="160" height="76" rx="20" fill="#FFFFFF" stroke="#D7E4F5"/>
      <text x="795" y="417" font-size="19" font-weight="700" fill="#243B64">多模态</text>
      <text x="795" y="442" font-size="13" fill="#5E6D82">看图、截图、图表</text>
    </g>
  </g>
  <g stroke="#C9D9EF" stroke-width="3">
    <line x1="265" y1="153" x2="415" y2="224"/>
    <line x1="490" y1="168" x2="490" y2="182"/>
    <line x1="715" y1="153" x2="565" y2="224"/>
    <line x1="245" y1="288" x2="404" y2="274"/>
    <line x1="735" y1="288" x2="576" y2="274"/>
    <line x1="265" y1="423" x2="416" y2="315"/>
    <line x1="490" y1="408" x2="490" y2="354"/>
    <line x1="715" y1="423" x2="564" y2="315"/>
  </g>
</svg>
