<svg width="980" height="420" viewBox="0 0 980 420" xmlns="http://www.w3.org/2000/svg">
  <defs>
    <filter id="shadow" x="-20%" y="-20%" width="140%" height="140%">
      <feDropShadow dx="0" dy="6" stdDeviation="8" flood-color="#B7C5D8" flood-opacity="0.32"/>
    </filter>
  </defs>
  <rect width="980" height="420" rx="28" fill="#F8FBFF"/>
  <text x="490" y="52" text-anchor="middle" font-family="Arial, 'PingFang SC', 'Microsoft YaHei', sans-serif" font-size="28" font-weight="700" fill="#243B64">大模型不是搜索引擎，而是语言协作者</text>
  <g font-family="Arial, 'PingFang SC', 'Microsoft YaHei', sans-serif" text-anchor="middle">
    <g filter="url(#shadow)">
      <rect x="60" y="105" width="260" height="230" rx="24" fill="#FFFFFF" stroke="#D7E4F5"/>
      <circle cx="190" cy="160" r="36" fill="#E7F0FF"/>
      <text x="190" y="171" font-size="34">🔎</text>
      <text x="190" y="220" font-size="23" font-weight="700" fill="#243B64">搜索引擎</text>
      <text x="190" y="255" font-size="16" fill="#5E6D82">像图书馆目录</text>
      <text x="190" y="285" font-size="16" fill="#5E6D82">帮你找到资料来源</text>
    </g>
    <g filter="url(#shadow)">
      <rect x="360" y="105" width="260" height="230" rx="24" fill="#FFFFFF" stroke="#D7E4F5"/>
      <circle cx="490" cy="160" r="36" fill="#FFF3D7"/>
      <text x="490" y="171" font-size="34">🧮</text>
      <text x="490" y="220" font-size="23" font-weight="700" fill="#243B64">计算器</text>
      <text x="490" y="255" font-size="16" fill="#5E6D82">像精确工具</text>
      <text x="490" y="285" font-size="16" fill="#5E6D82">帮你完成确定计算</text>
    </g>
    <g filter="url(#shadow)">
      <rect x="660" y="105" width="260" height="230" rx="24" fill="#385FA8"/>
      <circle cx="790" cy="160" r="36" fill="#FFFFFF" opacity="0.2"/>
      <text x="790" y="171" font-size="34">🤝</text>
      <text x="790" y="220" font-size="23" font-weight="700" fill="#FFFFFF">大模型</text>
      <text x="790" y="255" font-size="16" fill="#E9F1FF">像语言协作者</text>
      <text x="790" y="285" font-size="16" fill="#E9F1FF">帮你读、写、改、总结</text>
    </g>
  </g>
  <rect x="190" y="362" width="600" height="36" rx="18" fill="#E2EDFF"/>
  <text x="490" y="386" text-anchor="middle" font-family="Arial, 'PingFang SC', 'Microsoft YaHei', sans-serif" font-size="16" font-weight="600" fill="#385FA8">搜索引擎帮你找资料，大模型帮你处理资料</text>
</svg>
