<svg width="980" height="330" viewBox="0 0 980 330" xmlns="http://www.w3.org/2000/svg">
  <defs>
    <marker id="arrow" markerWidth="10" markerHeight="10" refX="8" refY="5" orient="auto">
      <path d="M0,0 L10,5 L0,10 Z" fill="#5A7BB8"/>
    </marker>
    <filter id="shadow" x="-20%" y="-20%" width="140%" height="140%">
      <feDropShadow dx="0" dy="6" stdDeviation="8" flood-color="#B7C5D8" flood-opacity="0.32"/>
    </filter>
  </defs>
  <rect width="980" height="330" rx="28" fill="#F8FBFF"/>
  <text x="490" y="54" text-anchor="middle" font-family="Arial, 'PingFang SC', 'Microsoft YaHei', sans-serif" font-size="28" font-weight="700" fill="#243B64">新手最实用的提问公式</text>
  <g font-family="Arial, 'PingFang SC', 'Microsoft YaHei', sans-serif" text-anchor="middle" font-size="18" font-weight="700">
    <g filter="url(#shadow)">
      <rect x="55" y="135" width="130" height="70" rx="18" fill="#FFFFFF" stroke="#D7E4F5"/>
      <text x="120" y="177" fill="#243B64">背景</text>
      <rect x="225" y="135" width="130" height="70" rx="18" fill="#FFFFFF" stroke="#D7E4F5"/>
      <text x="290" y="177" fill="#243B64">目标</text>
      <rect x="395" y="135" width="130" height="70" rx="18" fill="#FFFFFF" stroke="#D7E4F5"/>
      <text x="460" y="177" fill="#243B64">材料</text>
      <rect x="565" y="135" width="130" height="70" rx="18" fill="#FFFFFF" stroke="#D7E4F5"/>
      <text x="630" y="177" fill="#243B64">要求</text>
      <rect x="735" y="135" width="150" height="70" rx="18" fill="#385FA8"/>
      <text x="810" y="177" fill="#FFFFFF">输出格式</text>
    </g>
  </g>
  <g stroke="#5A7BB8" stroke-width="3" fill="none" marker-end="url(#arrow)">
    <path d="M185 170 H218"/>
    <path d="M355 170 H388"/>
    <path d="M525 170 H558"/>
    <path d="M695 170 H728"/>
  </g>
  <rect x="215" y="250" width="550" height="42" rx="21" fill="#E2EDFF"/>
  <text x="490" y="277" text-anchor="middle" font-family="Arial, 'PingFang SC', 'Microsoft YaHei', sans-serif" font-size="16" font-weight="600" fill="#385FA8">问题越清楚，模型越不需要猜，回答就越有用</text>
</svg>
