<svg width="980" height="360" viewBox="0 0 980 360" xmlns="http://www.w3.org/2000/svg">
  <defs>
    <marker id="arrow" markerWidth="10" markerHeight="10" refX="8" refY="5" orient="auto">
      <path d="M0,0 L10,5 L0,10 Z" fill="#5A7BB8"/>
    </marker>
    <filter id="shadow" x="-20%" y="-20%" width="140%" height="140%">
      <feDropShadow dx="0" dy="6" stdDeviation="8" flood-color="#B7C5D8" flood-opacity="0.32"/>
    </filter>
  </defs>
  <rect width="980" height="360" rx="28" fill="#F8FBFF"/>
  <text x="490" y="52" text-anchor="middle" font-family="Arial, 'PingFang SC', 'Microsoft YaHei', sans-serif" font-size="28" font-weight="700" fill="#243B64">正确使用大模型的闭环</text>
  <g font-family="Arial, 'PingFang SC', 'Microsoft YaHei', sans-serif" text-anchor="middle" font-size="16" font-weight="700">
    <g filter="url(#shadow)">
      <rect x="55" y="140" width="120" height="66" rx="18" fill="#FFFFFF" stroke="#D7E4F5"/><text x="115" y="180" fill="#243B64">提出任务</text>
      <rect x="215" y="140" width="120" height="66" rx="18" fill="#FFFFFF" stroke="#D7E4F5"/><text x="275" y="180" fill="#243B64">补充背景</text>
      <rect x="375" y="140" width="120" height="66" rx="18" fill="#FFFFFF" stroke="#D7E4F5"/><text x="435" y="180" fill="#243B64">获得初稿</text>
      <rect x="535" y="140" width="120" height="66" rx="18" fill="#FFF3D7" stroke="#E9C46A"/><text x="595" y="180" fill="#8A641A">检查事实</text>
      <rect x="695" y="140" width="120" height="66" rx="18" fill="#E7F0FF" stroke="#BCD0EF"/><text x="755" y="180" fill="#385FA8">指出问题</text>
      <rect x="855" y="140" width="80" height="66" rx="18" fill="#385FA8"/><text x="895" y="180" fill="#FFFFFF">修改</text>
    </g>
  </g>
  <g stroke="#5A7BB8" stroke-width="3" fill="none" marker-end="url(#arrow)">
    <path d="M175 173 H208"/>
    <path d="M335 173 H368"/>
    <path d="M495 173 H528"/>
    <path d="M655 173 H688"/>
    <path d="M815 173 H848"/>
    <path d="M895 210 C895 285 115 285 115 212"/>
  </g>
  <rect x="215" y="290" width="550" height="42" rx="21" fill="#E2EDFF"/>
  <text x="490" y="317" text-anchor="middle" font-family="Arial, 'PingFang SC', 'Microsoft YaHei', sans-serif" font-size="16" font-weight="600" fill="#385FA8">从“提问一次”变成“持续迭代”，你就开始真正用好大模型了</text>
</svg>
